<?xml version="1.0" encoding="UTF-8"?>
<svg width="16px" height="16px" viewBox="0 0 16 16" version="1.1" xmlns="http://www.w3.org/2000/svg" xmlns:xlink="http://www.w3.org/1999/xlink">
    <!-- Generator: sketchtool 48.2 (47327) - http://www.bohemiancoding.com/sketch -->
    <title>56F2314B-EE3B-462B-BC43-1EBD33E568E9</title>
    <desc>Created with sketchtool.</desc>
    <defs>
        <rect id="path-1" x="0" y="0" width="16" height="16"></rect>
    </defs>
    <g id="Symbols" stroke="none" stroke-width="1" fill="none" fill-rule="evenodd">
        <g id="Icons/language-Copy">
            <g id="Group">
                <g id="Rectangle" opacity="0">
                    <use fill="#D8D8D8" fill-rule="evenodd" xlink:href="#path-1"></use>
                    <rect stroke="#979797" stroke-width="1" x="0.5" y="0.5" width="15" height="15"></rect>
                </g>
                <g id="多语言" fill="#FFFFFF" fill-rule="nonzero">
                    <path d="M14.0278458,13.254089 C15.2985037,11.799758 15.9925754,9.9571292 15.9925754,8.00765534 C15.9925754,5.87423361 15.1617698,3.86846189 13.6531921,2.35988421 C12.1678185,0.874492295 10.2002869,0.046818434 8.10360345,0.0217096734 C8.06915443,0.010977557 7.91943581,0.0111057539 7.88476702,0.0219843937 C5.79648981,0.0527156152 3.83774898,0.879803418 2.35766819,2.35988421 C0.874510622,3.84306008 0.0470748456,5.80689228 0.0196035257,7.90005938 C0.0119298792,7.92958189 0.0117833557,8.05400859 0.0192189351,8.08309154 C0.0385953647,10.1882911 0.866910228,12.1646685 2.35766819,13.6554265 C3.86624587,15.1640042 5.87199928,15.9948098 8.00543932,15.9948098 C10.138861,15.9948098 12.1446328,15.1640042 13.6532105,13.6554265 C13.7630957,13.5455412 13.8689518,13.4327074 13.9715846,13.3176759 C13.9806684,13.3095627 13.9895142,13.3010649 13.9979204,13.2918895 C14.0089639,13.2798571 14.018707,13.2671104 14.0278458,13.254089 Z M0.759680555,8.35872034 L4.11541063,8.35872034 C4.13907259,9.53418096 4.28102599,10.6363848 4.51819494,11.6180078 C3.4141231,11.9166576 2.71382452,12.3047539 2.35127653,12.5469776 C1.41941315,11.3885674 0.835373154,9.93927284 0.759680555,8.35872034 Z M2.34239413,3.47933997 C2.70195692,3.72196657 3.4026584,4.11400043 4.5140376,4.41464643 C4.28141058,5.38337629 4.14128859,6.46884089 4.11594173,7.625969 L0.761090738,7.625969 C0.842534013,6.06230217 1.42170243,4.62840983 2.34239413,3.47933997 Z M15.2497879,7.62595068 L11.8949186,7.62595068 C11.86959,6.46924381 11.7295413,5.38414549 11.4970791,4.41567202 C12.6058943,4.11691239 13.3089034,3.72762565 13.67277,3.4846511 C14.590971,4.63284186 15.1684545,6.06471966 15.2497879,7.62595068 Z M11.1620207,7.62595068 L8.36093636,7.62595068 L8.36093636,4.83330915 C9.29532709,4.81371295 10.0988079,4.71780147 10.7819277,4.58214815 C11.0067163,5.51523857 11.1371134,6.54848938 11.1620207,7.62595068 Z M8.36093636,4.10050287 L8.36093636,0.803909351 C9.02028437,0.990018309 9.66347923,1.6845479 10.1672298,2.77286951 C10.3249151,3.11355035 10.4651286,3.4823435 10.5871745,3.87391952 C9.96029756,3.99512294 9.22168567,4.08165756 8.36093636,4.10050287 Z M7.62816669,0.810264394 L7.62816669,4.09984356 C6.77796635,4.07967962 6.04644208,3.99243075 5.42467481,3.87071454 C5.5465009,3.48032895 5.68638481,3.11259803 5.84363057,2.77283289 C6.34186851,1.69650708 6.97645571,1.00538393 7.62816669,0.810264394 Z M7.62816669,4.83294285 L7.62816669,7.62595068 L4.84883959,7.62595068 C4.8737469,6.54830624 5.00418067,5.5148906 5.22904249,4.58167196 C5.90619189,4.71653777 6.70223712,4.81230275 7.62816669,4.83294285 Z M4.84819859,8.35872034 L7.62816669,8.35872034 L7.62816669,11.1984111 C6.70450808,11.2197837 5.9096899,11.3158784 5.23314486,11.4508174 C5.00361294,10.5043027 4.87147596,9.45401967 4.84819859,8.35872034 Z M7.62816669,11.931492 L7.62816669,15.2050463 C6.9764374,15.0099267 6.34186851,14.3188036 5.84364888,13.2424595 C5.68830779,12.9068517 5.54996229,12.5438641 5.42919843,12.1587713 C6.04915257,12.0383921 6.77893702,11.9520406 7.62816669,11.931492 Z M8.36093636,15.2114013 L8.36093636,11.9303566 C9.21827923,11.9487074 9.95562744,12.0352786 10.5822663,12.1568666 C10.4613559,12.5426554 10.3228089,12.9062839 10.1672298,13.2424411 C9.66347923,14.3307628 9.02028435,15.0252924 8.36093636,15.2114013 Z M8.36093636,11.1974953 L8.36093636,8.35872034 L11.1626617,8.35872034 C11.139421,9.45216995 11.0076686,10.5007314 10.778851,11.4460191 C10.0967201,11.3112083 9.29430149,11.216304 8.36093636,11.1974953 Z M11.895468,8.35872034 L15.2511981,8.35872034 C15.175652,9.93614112 14.5937914,11.3828534 13.6651513,12.5401097 C13.2988123,12.2954869 12.5978544,11.9083612 11.4941672,11.6118176 C11.7304204,10.6317512 11.8718427,9.53172684 11.895468,8.35872034 Z M13.1815464,2.93051819 C12.8535024,3.1375969 12.2453609,3.45589779 11.3048898,3.70892684 C10.9595572,2.58040553 10.4796518,1.65068492 9.90780904,1.00688567 C11.1677897,1.34963603 12.2923185,2.02411157 13.1815464,2.93051819 Z M6.10305129,1.00688569 C5.5320327,1.64975091 5.05265838,2.57769505 4.70745394,3.70401865 C3.76958352,3.44913987 3.16168011,3.12953867 2.83574221,2.92392508 C3.72396281,2.02083332 4.84612909,1.3488119 6.10305129,1.00688569 Z M2.84416673,13.1000116 C3.17140494,12.8935555 3.77657953,12.5768663 4.71140981,12.3244233 C5.05632123,13.4448681 5.53424872,14.3680322 6.10305129,15.008425 C4.85010327,14.6675793 3.73105042,13.9987812 2.84416673,13.1000116 Z M9.90780904,15.008425 C10.4769596,14.3676476 10.9551068,13.4437509 11.3000732,12.3223904 C12.2304531,12.5733683 12.8387228,12.8885008 13.1709242,13.0956894 C12.2833629,13.9966201 11.1627533,14.6670482 9.90780904,15.008425 Z" id="Shape"></path>
                </g>
            </g>
        </g>
    </g>
</svg>