<?xml version="1.0" encoding="UTF-8"?>
<svg width="196px" height="160px" viewBox="0 0 196 160" version="1.1" xmlns="http://www.w3.org/2000/svg" xmlns:xlink="http://www.w3.org/1999/xlink">
    <!-- Generator: sketchtool 48.2 (47327) - http://www.bohemiancoding.com/sketch -->
    <title>776A420D-9312-47A8-ADDD-32FE55B89DB9</title>
    <desc>Created with sketchtool.</desc>
    <defs></defs>
    <g id="Symbols" stroke="none" stroke-width="1" fill="none" fill-rule="evenodd">
        <g id="Imgs/plantformttype_mobileios" fill="#CBD3DF" fill-rule="nonzero">
            <g id="苹果" transform="translate(43.000000, 16.000000)">
                <path d="M91.3746863,68.0183021 C91.560739,87.3741989 109.178005,93.8154718 109.383305,93.9052904 C109.222915,94.3479675 106.560436,103.086029 100.087085,112.112793 C94.492673,119.914175 88.6993768,127.670648 79.5571319,127.831039 C70.562446,127.991429 67.6818369,122.749875 57.4040289,122.749875 C47.1326365,122.749875 43.9184158,127.670648 35.4177319,127.991429 C26.602683,128.312209 19.8791233,119.574148 14.2398018,111.804844 C2.70453413,95.9069609 -6.0976835,66.8891547 5.73270225,47.302296 C11.6029858,37.5698149 22.1053401,31.4172445 33.4930488,31.2504386 C42.1605384,31.1028795 50.3468574,36.825604 55.6333204,36.825604 C60.9390303,36.825604 70.8768109,29.9480696 81.3278403,30.9553205 C85.696871,31.128542 97.9827651,32.6362104 105.86755,43.6325667 C105.238821,44.023919 91.2078804,51.7996389 91.3746863,68.0183021 Z M54.5747446,29.4989769 C53.5610783,22.1402717 57.3591196,14.492864 61.6960723,9.68757175 C66.5398581,4.27921212 74.7133459,0.256624375 81.4625681,0 C82.3286755,7.493433 79.159364,15.0189441 74.482384,20.4401349 C69.7925728,25.842079 62.1066714,30.057135 54.5747446,29.4989769 Z" id="Shape"></path>
            </g>
        </g>
    </g>
</svg>