<?xml version="1.0" encoding="UTF-8"?>
<svg width="196px" height="160px" viewBox="0 0 196 160" version="1.1" xmlns="http://www.w3.org/2000/svg" xmlns:xlink="http://www.w3.org/1999/xlink">
    <!-- Generator: sketchtool 48.2 (47327) - http://www.bohemiancoding.com/sketch -->
    <title>2F56C669-EF4C-4EF4-A953-21E1FE2541F4</title>
    <desc>Created with sketchtool.</desc>
    <defs></defs>
    <g id="Symbols" stroke="none" stroke-width="1" fill="none" fill-rule="evenodd">
        <g id="Imgs/plantformttype_mobileandroid" fill="#CBD3DF" fill-rule="nonzero">
            <path d="M51.0181944,57.0446071 C46.5847536,57.0446071 43,60.6374732 43,65.0682515 L43,98.6736102 C43,103.104388 46.5974205,106.697255 51.0181944,106.697255 C55.4516352,106.697255 59.0363888,103.104388 59.0363888,98.6736102 L59.0363888,65.0682515 C59.0363888,60.6374732 55.4516352,57.0446071 51.0181944,57.0446071 Z M62.1397973,110.632903 C62.1397973,115.368377 65.9778904,119.20246 70.7026716,119.20246 L76.5421465,119.20246 L76.5421465,136.976356 C76.5421465,141.407134 80.139567,145 84.5603409,145 C88.9937817,145 92.5785352,141.407134 92.5785352,136.976356 L92.5785352,119.20246 L103.408798,119.20246 L103.408798,136.976356 C103.408798,141.407134 107.006218,145 111.426992,145 C115.860433,145 119.445187,141.407134 119.445187,136.976356 L119.445187,119.20246 L125.284661,119.20246 C130.009443,119.20246 133.847536,115.368377 133.847536,110.632903 L133.847536,58.5553883 L62.1397973,58.5553883 L62.1397973,110.632903 Z M115.708429,26.8543756 L121.307232,16.6470811 C121.611239,16.1138642 121.408567,15.4282997 120.863888,15.1363 C120.331875,14.8443003 119.647858,15.0347349 119.356518,15.5806474 L113.69438,25.8895069 C108.944265,23.7820307 103.624136,22.6013362 98,22.6013362 C92.3758637,22.6013362 87.0557347,23.7820307 82.3056195,25.8768113 L76.6434823,15.5806474 C76.3521419,15.0347349 75.6681253,14.8443003 75.1361124,15.1363 C74.5914325,15.4282997 74.3887609,16.1138642 74.6927683,16.6470811 L80.2915707,26.8543756 C69.2966375,32.5420222 61.8611239,43.3587074 61.8611239,55.7623475 L134.126225,55.7623475 C134.138876,43.3460117 126.703363,32.5420222 115.708429,26.8543756 Z M81.5582681,42.6731428 C79.8862275,42.6731428 78.5308614,41.3147093 78.5308614,39.6388849 C78.5308614,37.9630604 79.8862275,36.604627 81.5582681,36.604627 C83.2303086,36.604627 84.5856748,37.9630604 84.5856748,39.6388849 C84.5730078,41.3147093 83.2176416,42.6731428 81.5582681,42.6731428 Z M114.454399,42.6731428 C112.782358,42.6731428 111.426992,41.3147093 111.426992,39.6388849 C111.426992,37.9630604 112.782358,36.604627 114.454399,36.604627 C116.126439,36.604627 117.481806,37.9630604 117.481806,39.6388849 C117.469139,41.3147093 116.113772,42.6731428 114.454399,42.6731428 Z M144.981806,57.0446071 C140.548365,57.0446071 136.963611,60.6374732 136.963611,65.0682515 L136.963611,98.6736102 C136.963611,103.104388 140.561032,106.697255 144.981806,106.697255 C149.415246,106.697255 153,103.104388 153,98.6736102 L153,65.0682515 C153,60.6374732 149.415246,57.0446071 144.981806,57.0446071 Z" id="Shape"></path>
        </g>
    </g>
</svg>