<?xml version="1.0" encoding="UTF-8"?>
<svg width="56px" height="56px" viewBox="0 0 56 56" version="1.1" xmlns="http://www.w3.org/2000/svg" xmlns:xlink="http://www.w3.org/1999/xlink">
    <!-- Generator: sketchtool 48.2 (47327) - http://www.bohemiancoding.com/sketch -->
    <title>5E5F87F9-CAE7-471B-BEB1-8F5532659862</title>
    <desc>Created with sketchtool.</desc>
    <defs></defs>
    <g id="5-1-1CreatApp_waitforreview_Appinfo" stroke="none" stroke-width="1" fill="none" fill-rule="evenodd" transform="translate(-360.000000, -92.000000)">
        <g id="Icons/plantform_head_android" transform="translate(360.000000, 92.000000)">
            <g id="Group-5">
                <rect id="Rectangle-4" stroke="#CCCCCC" x="0.5" y="0.5" width="55" height="55"></rect>
                <path d="M15.9681023,22.3494418 C14.8798941,22.3494418 14,23.2338396 14,24.3244927 L14,32.596581 C14,33.6872341 14.8830032,34.5716319 15.9681023,34.5716319 C17.0563105,34.5716319 17.9362045,33.6872341 17.9362045,32.596581 L17.9362045,24.3244927 C17.9362045,23.2338396 17.0563105,22.3494418 15.9681023,22.3494418 Z M18.6979503,35.5404069 C18.6979503,36.7060619 19.6400276,37.6498363 20.7997467,37.6498363 L22.2330723,37.6498363 L22.2330723,42.0249491 C22.2330723,43.1156022 23.1160755,44 24.2011746,44 C25.2893828,44 26.1692768,43.1156022 26.1692768,42.0249491 L26.1692768,37.6498363 L28.827614,37.6498363 L28.827614,42.0249491 C28.827614,43.1156022 29.7106172,44 30.7957163,44 C31.8839245,44 32.7638185,43.1156022 32.7638185,42.0249491 L32.7638185,37.6498363 L34.1971442,37.6498363 C35.3568632,37.6498363 36.2989406,36.7060619 36.2989406,35.5404069 L36.2989406,22.7213263 L18.6979503,22.7213263 L18.6979503,35.5404069 Z M31.8466145,14.9180001 L33.220866,12.4054354 C33.295486,12.274182 33.2457393,12.1054276 33.1120451,12.0335508 C32.9814602,11.9616739 32.8135652,12.0085501 32.7420544,12.1429286 L31.352257,14.680494 C30.1863197,14.1617306 28.8804698,13.8710981 27.5,13.8710981 C26.1195302,13.8710981 24.8136803,14.1617306 23.647743,14.6773689 L22.2579456,12.1429286 C22.1864348,12.0085501 22.0185398,11.9616739 21.8879549,12.0335508 C21.7542607,12.1054276 21.704514,12.274182 21.779134,12.4054354 L23.1533855,14.9180001 C20.4546292,16.3180362 18.6295486,18.9806049 18.6295486,22.0338086 L36.3673462,22.0338086 C36.3704514,18.9774798 34.5453708,16.3180362 31.8466145,14.9180001 Z M23.4643022,18.8118505 C23.0538922,18.8118505 22.7212114,18.4774669 22.7212114,18.0649563 C22.7212114,17.6524456 23.0538922,17.318062 23.4643022,17.318062 C23.8747121,17.318062 24.2073929,17.6524456 24.2073929,18.0649563 C24.2042837,18.4774669 23.8716029,18.8118505 23.4643022,18.8118505 Z M31.538807,18.8118505 C31.1283971,18.8118505 30.7957163,18.4774669 30.7957163,18.0649563 C30.7957163,17.6524456 31.1283971,17.318062 31.538807,17.318062 C31.949217,17.318062 32.2818977,17.6524456 32.2818977,18.0649563 C32.2787886,18.4774669 31.9461078,18.8118505 31.538807,18.8118505 Z M39.0318977,22.3494418 C37.9436895,22.3494418 37.0637955,23.2338396 37.0637955,24.3244927 L37.0637955,32.596581 C37.0637955,33.6872341 37.9467987,34.5716319 39.0318977,34.5716319 C40.1201059,34.5716319 41,33.6872341 41,32.596581 L41,24.3244927 C41,23.2338396 40.1201059,22.3494418 39.0318977,22.3494418 Z" id="Shape" fill="#CCCCCC" fill-rule="nonzero"></path>
            </g>
        </g>
    </g>
</svg>