<?xml version="1.0" encoding="UTF-8"?>
<svg width="196px" height="160px" viewBox="0 0 196 160" version="1.1" xmlns="http://www.w3.org/2000/svg" xmlns:xlink="http://www.w3.org/1999/xlink">
    <!-- Generator: sketchtool 48.2 (47327) - http://www.bohemiancoding.com/sketch -->
    <title>F45F5E39-99AC-4FD9-93F8-F31C8511656D</title>
    <desc>Created with sketchtool.</desc>
    <defs></defs>
    <g id="Symbols" stroke="none" stroke-width="1" fill="none" fill-rule="evenodd">
        <g id="Imgs/plantformttype_surf">
            <g id="Group-4-Copy" transform="translate(20.000000, 26.000000)">
                <g id="Group">
                    <path d="M20.7249915,3.24109674 C21.0208846,1.88250828 21.2765652,1.00113004 21.4920332,0.596962004 C21.7075011,0.192793969 22.1278578,0.0457806472 22.7531032,0.155922039 L78.0389464,0.155922039 L132.742155,0.155922039 C133.635798,0.174793553 134.196549,0.321806875 134.42441,0.596962004 C134.652271,0.872117132 134.94315,1.75349538 135.297045,3.24109674 C136.500485,20.4883872 137.403941,34.1825591 138.007412,44.3236125 C138.06351,45.2663008 137.754705,47.400107 136.141642,48.915662 C135.222339,49.7793941 134.715409,50.2640695 132.399759,50.9215236 C132.814796,51.9878558 133.030271,52.2908466 133.187419,53.5849951 C133.362795,55.0292573 132.941491,57.4838617 132.742155,58.1631898 C135.297045,58.1631898 138.510715,58.8160215 139.394574,60.9697688 C139.593126,60.8640889 140.108659,61.5731888 140.570333,62.3537995 C141.851828,65.8930706 146.158091,77.3584532 153.489122,96.7499473 C154.207627,97.6069893 154.658254,98.097333 154.841005,98.2209784 C155.409747,99.3037475 155.787195,100.395727 155.961478,101.267829 C156.201,102.993341 154.994825,105.519997 154.007579,106.62402 C152.793808,107.686941 150.711841,108.267843 147.761678,108.366724 L7.66572969,108.382148 C4.89970502,108.112714 3.02374893,107.526671 2.03786142,106.62402 C0.559030152,105.270043 -0.18810159,102.486028 0.187906843,100.689245 C1.03605211,98.1149892 1.16371857,97.9819594 2.43242976,96.7499473 C3.15918427,95.2127808 13.0632502,68.7251669 15.6898145,61.8573527 C16.0906479,61.1633752 16.4157524,60.7575573 16.6432885,60.7137264 C18.2728176,58.1675879 22.5302447,58.1945234 23.1998086,58.1631898 C23.4214914,57.9277237 22.8750113,56.7050942 22.7531032,55.3111253 C22.6204916,53.7947673 23.1998086,51.7815303 23.675457,50.9215236 C19.3622319,49.7444248 17.7955926,46.7846622 17.8798296,43.7732634 C18.7804718,30.9649927 19.7288591,17.4542704 20.7249915,3.24109674 Z M29.0847458,41.4752624 C31.833505,41.4752624 34.0618146,39.2413848 34.0618146,36.4857571 C34.0618146,33.7301295 31.833505,31.4962519 29.0847458,31.4962519 C26.3359866,31.4962519 24.107677,33.7301295 24.107677,36.4857571 C24.107677,39.2413848 26.3359866,41.4752624 29.0847458,41.4752624 Z M126.915254,41.4752624 C129.664013,41.4752624 131.892323,39.2413848 131.892323,36.4857571 C131.892323,33.7301295 129.664013,31.4962519 126.915254,31.4962519 C124.166495,31.4962519 121.938185,33.7301295 121.938185,36.4857571 C121.938185,39.2413848 124.166495,41.4752624 126.915254,41.4752624 Z M43.2382851,6.23688156 L41.6868197,43.9221381 L114.196813,43.9221381 L112.989844,6.23688156 L43.2382851,6.23688156 Z" id="Combined-Shape" fill="#CBD3DF"></path>
                    <path d="M39.8125103,4.17015585 C40.6812291,3.46515522 41.6645037,3.11458353 42.7623339,3.11844078 L113.47445,3.11844078 C114.559037,3.16980763 115.46993,3.52037932 116.207128,4.17015585 C116.944326,4.81993239 117.397622,5.67177526 117.567016,6.72568447 L119.262647,43.0367105 C119.374551,44.4164866 119.097987,45.4786203 118.432954,46.2231118 C117.767922,46.9676033 116.794826,47.4119733 115.513665,47.5562219 L40.8603715,47.5562219 C39.3300128,47.369233 38.30599,46.9856732 37.7883031,46.4055424 C36.8614158,45.259372 36.7786462,44.5481227 36.8614158,43.0367105 C37.709201,27.5557472 38.3935236,15.6470735 38.3935236,7.5513202 C38.4492051,5.938379 38.5094321,5.2276568 39.8125103,4.17015585 Z M43.2382851,6.23688156 L41.6868197,43.9221381 L114.196813,43.9221381 L112.989844,6.23688156 L43.2382851,6.23688156 Z" id="Combined-Shape" fill="#CBD3DF"></path>
                    <path d="M23.3511571,50.6746627 L132.44652,50.6746627 C133.15781,51.3016127 133.54157,52.574976 133.597801,54.4947526 C133.654031,56.4145292 133.270271,57.6878926 132.44652,58.3148426 L23.3511571,58.3148426 C22.7149254,57.1164797 22.3968096,55.8431163 22.3968096,54.4947526 C22.3968096,53.1463889 22.7149254,51.8730256 23.3511571,50.6746627 Z" id="Rectangle-18" opacity="0.755038496"></path>
                    <path d="M44.7654496,50.6746627 C44.2055351,52.0651895 43.983724,53.2150884 44.0196886,54.4923705 C44.0542967,55.7214749 44.2391477,56.9535446 44.5465836,58.3120628 L45.7650086,58.3120628 C45.4749209,57.0302045 45.2957064,55.602389 45.2634604,54.4571742 C45.232571,53.3601372 45.640799,51.9123656 46.1391769,50.6746627 L44.7654496,50.6746627 Z" id="Line" fill="#CBD3DF" fill-rule="nonzero"></path>
                    <path d="M110.556078,50.6746627 C109.996163,52.0651895 109.774352,53.2150884 109.810317,54.4923705 C109.844925,55.7214749 110.029776,56.9535446 110.337212,58.3120628 L111.555637,58.3120628 C111.265549,57.0302045 111.086335,55.602389 111.054089,54.4571742 C111.023199,53.3601372 111.431427,51.9123656 111.929805,50.6746627 L110.556078,50.6746627 Z" id="Line-Copy" fill="#CBD3DF" fill-rule="nonzero" transform="translate(110.868193, 54.493363) scale(-1, 1) translate(-110.868193, -54.493363) "></path>
                    <path d="M77.9759169,55.5170949 C79.1355497,55.5170949 80.0726177,54.6289724 80.0726177,53.466442 C80.0726177,52.3039116 79.3335088,51.7788797 77.9759169,51.7663269 C76.618325,51.7537741 75.9002991,52.3039116 75.9002991,53.466442 C75.9002991,54.6289724 76.8162841,55.5170949 77.9759169,55.5170949 Z" id="Oval-5"></path>
                    <path d="M77.9160896,54.905133 C78.5173807,54.905133 79.0046091,54.415116 79.0117508,53.8920982 C79.0188926,53.3690805 78.5173807,52.9450522 77.9160896,52.9450522 C77.3147985,52.9450522 76.8576862,53.3940854 76.8342832,53.8920982 C76.8108803,54.3901111 77.3147985,54.905133 77.9160896,54.905133 Z" id="Oval-2" fill="#CBD3DF"></path>
                    <path d="M34.441402,61.4360302 C35.1766477,60.5842977 35.816751,60.041645 36.3617119,59.8080724 C36.9066728,59.5744997 37.8506845,59.362803 39.1937471,59.1729822 L117.090355,59.2503748 C118.196118,59.2554324 119.171419,59.4964156 120.016258,59.9733242 C120.861097,60.4502328 121.416269,61.0731958 121.681773,61.8422132 L129.73808,91.995166 C130.068595,93.3868536 129.812601,94.4215905 128.9701,95.0993769 C128.127599,95.7771633 126.593583,96.197311 124.368053,96.3598201 L30.4655068,96.247559 C28.96924,96.1544917 27.8664605,95.796485 27.1571685,95.173539 C26.4478764,94.550593 26.1071488,93.6897892 26.1349857,92.5911277 L34.441402,61.4360302 Z M39.6624195,61.4332834 L32.3194574,92.8115941 L123.696549,92.8115941 L116.255495,61.4332834 L39.6624195,61.4332834 Z" id="Combined-Shape" fill="#CBD3DF"></path>
                    <polygon id="Rectangle-19" fill="#FFFFFF" points="39.6624195 61.4332834 116.255495 61.4332834 123.696549 92.8115941 32.3194574 92.8115941"></polygon>
                    <g id="Group-2" transform="translate(128.470588, 77.181409)" fill="#FFFFFF">
                        <path d="M3.54749935,4.22530412 C5.30789161,4.2777753 6.73422985,3.89242109 6.69417582,2.49465745 C6.69417582,1.4182404 5.3289518,0.0743351252 3.26620487,0.000878262694 C0.907651986,-0.0326846684 0.0447193983,0.8516674 0.0467733681,1.78613252 C0.0467733681,2.86254958 1.78710708,4.17283295 3.54749935,4.22530412 Z" id="Oval-7"></path>
                    </g>
                    <g id="Group-2-Copy" transform="translate(135.625125, 74.062969)" fill="#FFFFFF">
                        <path d="M3.54749935,4.22530412 C5.30789161,4.2777753 6.73422985,3.89242109 6.69417582,2.49465745 C6.69417582,1.4182404 5.3289518,0.0743351252 3.26620487,0.000878262694 C0.907651986,-0.0326846684 0.0447193983,0.8516674 0.0467733681,1.78613252 C0.0467733681,2.86254958 1.78710708,4.17283295 3.54749935,4.22530412 Z" id="Oval-7"></path>
                    </g>
                    <g id="Group-2-Copy-2" transform="translate(137.958126, 81.235382)" fill="#FFFFFF">
                        <path d="M3.54749935,4.22530412 C5.30789161,4.2777753 6.73422985,3.89242109 6.69417582,2.49465745 C6.69417582,1.4182404 5.3289518,0.0743351252 3.26620487,0.000878262694 C0.907651986,-0.0326846684 0.0447193983,0.8516674 0.0467733681,1.78613252 C0.0467733681,2.86254958 1.78710708,4.17283295 3.54749935,4.22530412 Z" id="Oval-7"></path>
                    </g>
                    <g id="Group-2-Copy-3" transform="translate(130.648056, 84.509745)" fill="#FFFFFF">
                        <path d="M3.54749935,4.22530412 C5.30789161,4.2777753 6.73422985,3.89242109 6.69417582,2.49465745 C6.69417582,1.4182404 5.3289518,0.0743351252 3.26620487,0.000878262694 C0.907651986,-0.0326846684 0.0447193983,0.8516674 0.0467733681,1.78613252 C0.0467733681,2.86254958 1.78710708,4.17283295 3.54749935,4.22530412 Z" id="Oval-7"></path>
                    </g>
                    <g id="Group-3" transform="translate(18.352941, 60.185907)">
                        <ellipse id="Oval-3" fill="#D8D8D8" cx="5.44366899" cy="6.7826087" rx="4.51046859" ry="2.57271364"></ellipse>
                        <path d="M0.0315079326,3.69141955 C0.33252729,5.55540939 2.75981236,6.21480947 5.19548705,6.09060403 C6.81927018,6.00780041 8.4453633,4.95497518 10.0737664,2.93212835 C10.1805827,4.02682397 10.0959409,4.71475921 9.81984088,4.99593406 C7.8624373,6.98931564 5.93107772,6.99616864 5.0526103,7.04688538 C4.4604446,7.08107301 2.08425736,7.10818102 1.05904378,6.27276337 C0.326438324,5.67578385 -0.0861591528,5.40531059 0.0315079326,3.69141955 Z" id="Rectangle-3" fill="#EEEEEE"></path>
                        <path d="M4.70474639,6.10558983 C7.41055622,6.10558983 10.0518514,4.41893297 10.0414627,2.76273641 C10.0310739,1.10653985 8.50379609,0.0114851137 5.42971462,0.0114851137 C2.35563315,0.0114851137 0.0957577074,1.79316062 0.0544528668,3.38573936 C0.0131480263,4.9783181 1.99893656,6.10558983 4.70474639,6.10558983 Z" id="Oval-8" fill="#EEEEEE"></path>
                    </g>
                    <g id="Group-3-Copy" transform="translate(132.302592, 63.685907) scale(-1, 1) translate(-132.302592, -63.685907) translate(126.802592, 60.185907)" fill="#FFFFFF">
                        <path d="M4.70474639,6.10558983 C7.41055622,6.10558983 10.0518514,4.41893297 10.0414627,2.76273641 C10.0310739,1.10653985 8.50379609,0.0114851137 5.42971462,0.0114851137 C2.35563315,0.0114851137 0.0957577074,1.79316062 0.0544528668,3.38573936 C0.0131480263,4.9783181 1.99893656,6.10558983 4.70474639,6.10558983 Z" id="Oval-8"></path>
                    </g>
                    <g id="Group-3" transform="translate(18.352941, 60.185907)">
                        <ellipse id="Oval-3" fill="#CBD3DF" cx="5.44366899" cy="6.7826087" rx="4.51046859" ry="2.57271364"></ellipse>
                        <path d="M0.0315079326,3.69141955 C0.33252729,5.55540939 2.75981236,6.21480947 5.19548705,6.09060403 C6.81927018,6.00780041 8.4453633,4.95497518 10.0737664,2.93212835 C10.1805827,4.02682397 10.0959409,4.71475921 9.81984088,4.99593406 C7.8624373,6.98931564 5.93107772,6.99616864 5.0526103,7.04688538 C4.4604446,7.08107301 2.08425736,7.10818102 1.05904378,6.27276337 C0.326438324,5.67578385 -0.0861591528,5.40531059 0.0315079326,3.69141955 Z" id="Rectangle-3" fill="#CBD3DF"></path>
                        <path d="M4.70474639,6.10558983 C7.41055622,6.10558983 10.0518514,4.41893297 10.0414627,2.76273641 C10.0310739,1.10653985 8.50379609,0.0114851137 5.42971462,0.0114851137 C2.35563315,0.0114851137 0.0957577074,1.79316062 0.0544528668,3.38573936 C0.0131480263,4.9783181 1.99893656,6.10558983 4.70474639,6.10558983 Z" id="Oval-8" fill="#FFFFFF"></path>
                    </g>
                    <g id="Group-3-Copy-2" transform="translate(17.419741, 73.907046)" fill="#FFFFFF">
                        <path d="M2.60736179,3.43028486 C4.12426937,3.43028486 5.60500934,2.4808897 5.59918527,1.54864022 C5.59336119,0.616390732 4.73715201,0 3.01378717,0 C1.29042234,0 0.0235106156,1.0028798 0.000354654881,1.89931972 C-0.0228013058,2.79575963 1.0904542,3.43028486 2.60736179,3.43028486 Z" id="Oval-8"></path>
                    </g>
                    <path d="M136.960941,91.8847131 C137.393643,91.6113687 137.75781,91.5262369 139.157509,91.5262369 C141.097141,91.5364813 141.259828,91.5470621 141.665284,91.5470621 C142.335827,91.5470621 143.359576,91.5836538 144.19184,92.1197393 C145.024104,92.6558247 145.384265,93.1238408 145.384265,93.5988924 C145.384265,94.0739441 145.183334,94.489359 144.979725,94.6848328 C144.776116,94.8803065 144.382491,95.1478684 143.528042,95.1478684 C142.958409,95.1478684 141.424342,95.1478684 138.925841,95.1478684 C138.134179,95.0040671 137.479212,94.7472946 136.960941,94.3775506 C136.686059,94.19253 136.236426,93.6453801 136.247457,93.3645603 C136.247457,92.4376123 136.528239,92.1580575 136.960941,91.8847131 Z" id="Rectangle-22" fill="#FFFFFF"></path>
                    <path d="M14.5561552,82.9010497 C14.9888571,82.7009887 15.3530244,82.6386807 16.7527231,82.6386807 C18.6923556,82.6461786 18.8550421,82.6539227 19.2604979,82.6539227 C19.9310414,82.6539227 21.3380727,82.6284597 21.8658277,82.9010497 C22.3935827,83.1736397 22.7061329,83.3845379 22.8856404,83.8619631 C23.0651479,84.3393884 22.7785486,84.8073919 22.5749393,84.9504592 C22.37133,85.0935266 21.9777056,85.2893553 21.1232562,85.2893553 C20.5536233,85.2893553 19.0195562,85.2893553 16.521055,85.2893553 C15.7293934,85.1841071 15.0744268,84.9961751 14.5561552,84.7255592 C14.2812735,84.5901425 13.83164,84.1896831 13.8426718,83.9841509 C13.8426718,83.305717 14.1234532,83.1011106 14.5561552,82.9010497 Z" id="Rectangle-22-Copy-2" fill="#FFFFFF" transform="translate(18.392379, 83.964018) scale(-1, 1) translate(-18.392379, -83.964018) "></path>
                    <path d="M12.8452878,88.358321 C13.2779897,88.1582601 13.642157,88.095952 15.0418557,88.095952 C16.9814882,88.1034499 17.1441747,88.111194 17.5496305,88.111194 C18.220174,88.111194 19.6272053,88.0857311 20.1549603,88.358321 C20.6827153,88.630911 20.9952655,88.8418092 21.174773,89.3192345 C21.3542805,89.7966597 21.0676812,90.2646632 20.8640719,90.4077306 C20.6604626,90.550798 20.2668382,90.7466267 19.4123888,90.7466267 C18.8427559,90.7466267 17.3086888,90.7466267 14.8101876,90.7466267 C14.018526,90.6413785 13.3635594,90.4534464 12.8452878,90.1828306 C12.5704061,90.0474139 12.1207726,89.6469545 12.1318044,89.4414223 C12.1318044,88.7629884 12.4125858,88.558382 12.8452878,88.358321 Z" id="Rectangle-22-Copy-4" fill="#FFFFFF" transform="translate(16.681512, 89.421289) scale(-1, 1) translate(-16.681512, -89.421289) "></path>
                    <path d="M16.6694736,60.6490548 L3.01159921,97.1111674 C2.61858624,97.6181608 2.42630046,97.9356924 2.43474186,98.0637621 C2.46056331,98.4555155 3.10660344,98.4164943 3.17100985,98.4170623 C3.26699932,98.4179088 52.5755911,98.4179088 151.096785,98.4170623 C152.422672,98.5008341 153.198466,98.4684597 153.424167,98.3199392 C153.649869,98.1714186 153.535583,97.7684947 153.08131,97.1111674 L139.3719,60.6490548 C139.705475,61.0169432 139.937584,61.3059544 140.068227,61.5160885 C140.198869,61.7262226 140.32284,62.0099543 140.440139,62.3672834 C148.733325,84.0454679 153.061335,95.4906599 153.424167,96.7028596 C154.4439,97.442429 155.211438,98.6794068 155.726782,100.413793 L0.276532407,100.413793 L0.922208889,98.4170623 C1.86670569,97.4566025 2.42055242,96.7754349 2.58374908,96.3735594 C2.7449055,95.976708 6.78202994,84.5363846 15.7820585,61.6987469 C15.858019,61.5059967 16.153824,61.1560993 16.6694736,60.6490548 Z" id="Rectangle-23" fill="#CBD3DF"></path>
                    <path d="M0.18774181,100.455926 C0.219649472,100.424476 0.331584896,100.410432 0.523548083,100.413793 L155.704141,100.413793 C155.804266,100.4776 155.861249,100.589181 155.87509,100.748538 C155.895852,100.987572 155.957429,101.128737 155.93656,101.93072 C155.936064,103.393455 155.565399,104.578325 154.943742,105.425104 C154.493999,105.888744 153.663787,106.246062 152.453106,106.497056 L3.66974461,106.497056 C2.70619702,106.435652 1.92666297,106.159434 1.33114245,105.668401 C0.663045765,105.06784 0.0856866364,103.385908 0.0792825294,102.532702 C0.0567556339,101.979006 0.0509227616,101.447747 0.0617839124,100.938923 C0.0655787859,100.761141 0.139880318,100.5031 0.18774181,100.455926 Z" id="Rectangle-5" fill="#CBD3DF"></path>
                </g>
                <path d="M130.953655,80.143928 L131.372727,78.1213391 L131.753662,78.1213391 L133.45434,80.143928 L133.051533,80.143928 L132.555994,79.5313568 L131.438705,79.5313568 L131.329122,80.143928 L130.953655,80.143928 Z M131.475345,79.3133697 L132.381205,79.3133697 L131.934211,78.7532257 C131.798079,78.5830661 131.692932,78.4432615 131.618765,78.3338075 C131.623668,78.4634967 131.614322,78.5922641 131.590726,78.7201137 L131.475345,79.3133697 Z" id="A" fill="#CBD3DF"></path>
                <path d="M138.231524,76.8695652 L137.619031,75.075714 L138.621492,75.075714 C138.825631,75.075714 138.995562,75.0938644 139.131291,75.1301658 C139.267019,75.1664672 139.382698,75.222346 139.478331,75.297804 C139.573965,75.373262 139.635846,75.4521858 139.663978,75.5345777 C139.690161,75.6112593 139.683826,75.6834531 139.644973,75.7511614 C139.606121,75.8188696 139.53122,75.8735248 139.420269,75.9151287 C139.592742,75.9469434 139.735507,76.0011907 139.84857,76.0778723 C139.961632,76.154554 140.035989,76.2451022 140.071641,76.3495197 C140.10033,76.4335431 140.100571,76.5116512 140.072364,76.5838461 C140.044157,76.656041 139.997855,76.7117159 139.933458,76.7508725 C139.86906,76.790029 139.781646,76.8196 139.671212,76.8395861 C139.560778,76.8595723 139.420505,76.8695652 139.250389,76.8695652 L138.231524,76.8695652 Z M138.229991,75.8294741 L138.807773,75.8294741 C138.964522,75.8294741 139.074551,75.8225402 139.137862,75.8086723 C139.221652,75.7907255 139.279227,75.7609507 139.310589,75.7193468 C139.34195,75.677743 139.346907,75.625535 139.32546,75.5627213 C139.305127,75.5031707 139.265968,75.4507588 139.20798,75.405484 C139.149993,75.3602093 139.078654,75.3292108 138.993962,75.3124877 C138.90927,75.2957645 138.770932,75.2874031 138.578944,75.2874031 L138.044906,75.2874031 L138.229991,75.8294741 Z M138.51284,76.6578761 L139.17811,76.6578761 C139.292331,76.6578761 139.371552,76.655021 139.415776,76.6493106 C139.493846,76.6395215 139.556321,76.6232065 139.603202,76.6003652 C139.650083,76.5775238 139.683691,76.544282 139.704028,76.5006388 C139.724365,76.4569955 139.724784,76.406623 139.705287,76.3495197 C139.682447,76.2826272 139.637085,76.224505 139.569199,76.1751515 C139.501313,76.1257979 139.418696,76.0911285 139.321347,76.0711423 C139.223997,76.0511562 139.090266,76.0411632 138.920151,76.0411632 L138.30227,76.0411632 L138.51284,76.6578761 Z" id="B" fill="#CBD3DF"></path>
                <path d="M133.114259,87.5399851 L133.903972,86.5773359 L132.76869,85.6928074 L133.189724,85.6928074 L133.794503,86.1665719 C133.920241,86.2648534 134.011073,86.3404533 134.067001,86.3933741 C134.109527,86.3261731 134.162243,86.2560332 134.225152,86.1829521 L134.638736,85.6928074 L135.023317,85.6928074 L134.305093,86.5634757 L135.56391,87.5399851 L135.126472,87.5399851 L134.287063,86.8809988 C134.239824,86.8431982 134.19052,86.8020382 134.139149,86.7575176 C134.096623,86.8247186 134.065792,86.8709185 134.046655,86.8961189 L133.538938,87.5399851 L133.114259,87.5399851 Z" id="X" fill="#CBD3DF"></path>
                <path d="M141.642931,84.2148979 L141.341692,83.380147 L139.901993,82.2442944 L140.33214,82.2442944 L141.073296,82.8384327 C141.210606,82.9495541 141.34123,83.0606739 141.465173,83.1717954 C141.508181,83.0687392 141.563509,82.9526907 141.631161,82.8236464 L141.939724,82.2442944 L142.351644,82.2442944 L141.695288,83.380147 L141.996526,84.2148979 L141.642931,84.2148979 Z" id="Y" fill="#CBD3DF"></path>
            </g>
        </g>
    </g>
</svg>