<?xml version="1.0" encoding="UTF-8"?>
<svg width="64px" height="64px" viewBox="0 0 64 64" version="1.1" xmlns="http://www.w3.org/2000/svg" xmlns:xlink="http://www.w3.org/1999/xlink">
    <!-- Generator: Sketch 48.2 (47327) - http://www.bohemiancoding.com/sketch -->
    <title>Icons/success_mobile</title>
    <desc>Created with Sketch.</desc>
    <defs></defs>
    <g id="Symbols" stroke="none" stroke-width="1" fill="none" fill-rule="evenodd">
        <g id="Icons/success_mobile" fill="#2CC66C" fill-rule="nonzero">
            <g id="勾-(1)">
                <path d="M12.1234286,32.1630476 C11.4102857,31.4681905 11.3935238,30.3283809 12.0883809,29.6152381 C12.7832381,28.9020953 13.9230476,28.8853334 14.6361904,29.5801905 L26.6605714,41.2784762 L49.3561905,18.9180953 C50.0662857,18.2201905 51.2060952,18.2293334 51.904,18.9394286 C52.6003809,19.648 52.5912381,20.7893333 51.8826667,21.4872381 L27.9314286,45.0834286 C27.2350476,45.7676191 26.1150476,45.7752381 25.4110476,45.0910476 L12.1234286,32.1630476 Z" id="Shape"></path>
                <path d="M32,0 C40.8350476,0 48.8350476,3.58247619 54.6270476,9.37447619 C60.416,15.1649524 64,23.1649524 64,32 C64,40.8350476 60.416,48.8350476 54.6270476,54.6270476 C48.8335238,60.416 40.8335238,64 32,64 C23.1664762,64 15.1649524,60.416 9.37295238,54.6270476 C3.58247619,48.8350476 0,40.8350476 0,32 C0,23.1649524 3.58247619,15.1649524 9.37295238,9.37447619 C15.1649524,3.584 23.1649524,0 32,0 Z M52.3641905,11.6358095 C47.1512381,6.42438094 39.9497143,3.2 32,3.2 C24.0472381,3.2 16.8487619,6.42438094 11.6373333,11.6358095 C6.42285712,16.8487619 3.2,24.0487619 3.2,32 C3.2,39.9527619 6.42285712,47.1512381 11.6358095,52.3641905 C16.8472381,57.5756191 24.0472381,60.8 32,60.8 C39.9512381,60.8 47.1512381,57.5756191 52.3641905,52.3641905 C57.5756191,47.1512381 60.7984762,39.9512381 60.7984762,32 C60.7984762,24.0487619 57.5756191,16.8487619 52.3641905,11.6358095 Z" id="Shape"></path>
            </g>
        </g>
    </g>
</svg>