<?xml version="1.0" encoding="UTF-8"?>
<svg width="40px" height="40px" viewBox="0 0 40 40" version="1.1" xmlns="http://www.w3.org/2000/svg" xmlns:xlink="http://www.w3.org/1999/xlink">
    <!-- Generator: Sketch 48.2 (47327) - http://www.bohemiancoding.com/sketch -->
    <title>Icons/Mobile/OAuth_Wechat</title>
    <desc>Created with Sketch.</desc>
    <defs></defs>
    <g id="Symbols" stroke="none" stroke-width="1" fill="none" fill-rule="evenodd">
        <g id="Icons/Mobile/OAuth_Wechat">
            <g id="Group-8">
                <path d="M0,20 C0,8.95430446 8.95430446,0 20,0 C31.0456955,0 40,8.95430446 40,20 C40,31.0456955 31.0456955,40 20,40 C8.95430446,40 0,31.0456955 0,20 Z" id="back" fill="#51C332"></path>
                <g id="Icons/OAuth/Wechat" transform="translate(8.000000, 9.000000)" fill="#FFFFFF" fill-rule="nonzero">
                    <g id="wechat">
                        <path d="M23.9803317,15.4259356 C23.9803317,11.9156137 20.6296039,9.07139122 16.4973893,9.07139122 C12.3629268,9.07139122 9.01219902,11.9163629 9.01219902,15.4259356 C9.01219902,18.9355083 12.3629268,21.78048 16.4973893,21.78048 C17.7958712,21.78048 19.0179278,21.4972566 20.0841366,21.0019902 L23.0340059,22.2787434 L22.6923395,18.9879571 C23.5067941,17.9719493 23.981081,16.7446478 23.981081,15.4259356 L23.9803317,15.4259356 Z M13.9746029,13.7041171 C13.385678,13.7041171 12.9098927,13.2275824 12.9098927,12.6394068 C12.9098927,12.0512312 13.385678,11.5746966 13.9746029,11.5746966 C14.5627785,11.5746966 15.0385639,12.0519805 15.0385639,12.6394068 C15.0385639,13.2268332 14.56128,13.7041171 13.9746029,13.7041171 Z M19.0179278,13.7041171 C18.4312507,13.7041171 17.9539668,13.2275824 17.9539668,12.6394068 C17.9539668,12.0512312 18.4312507,11.5746966 19.0179278,11.5746966 C19.607602,11.5746966 20.0841366,12.0519805 20.0841366,12.6394068 C20.0841366,13.2268332 19.607602,13.7041171 19.0179278,13.7041171 Z M16.4973893,8.22996293 C17.6535102,8.22996293 18.7549346,8.43601171 19.7582049,8.80689951 C19.7656976,8.67278049 19.7814322,8.54390634 19.7814322,8.40903805 C19.7814322,3.77106732 15.3525073,0.0119882927 9.89034146,0.0119882927 C4.42967415,0.0119882927 0.000749268293,3.77031805 0.000749268293,8.40903805 C0.000749268293,10.1533346 0.628636098,11.7755005 1.70308683,13.1181893 L1.25202732,17.4654439 L5.14897171,15.7773424 C6.11402927,16.2269034 7.18098732,16.5303571 8.30713756,16.6854556 C8.22247024,16.2756059 8.17077073,15.8560156 8.17077073,15.4259356 C8.17152,11.45856 11.9066224,8.2307122 16.4973893,8.2307122 L16.4973893,8.22996293 Z M13.2238361,3.32225561 C14.0008273,3.32225561 14.6287141,3.95164098 14.6287141,4.72713366 C14.6287141,5.50412488 14.0008273,6.13351024 13.2238361,6.13351024 C12.4468449,6.13351024 11.8182088,5.50412488 11.8182088,4.72713366 C11.8182088,3.95089171 12.4475941,3.32225561 13.2238361,3.32225561 Z M6.55684683,6.13351024 C5.77985561,6.13351024 5.15196878,5.50412488 5.15196878,4.72713366 C5.15196878,3.95089171 5.78060488,3.32225561 6.55684683,3.32225561 C7.33383805,3.32225561 7.96247415,3.95164098 7.96247415,4.72713366 C7.96247415,5.50262634 7.33308878,6.13351024 6.55684683,6.13351024 Z" id="Shape"></path>
                    </g>
                </g>
            </g>
        </g>
    </g>
</svg>