<?xml version="1.0" encoding="UTF-8"?>
<svg width="40px" height="40px" viewBox="0 0 40 40" version="1.1" xmlns="http://www.w3.org/2000/svg" xmlns:xlink="http://www.w3.org/1999/xlink">
    <!-- Generator: Sketch 48.2 (47327) - http://www.bohemiancoding.com/sketch -->
    <title>Icons/Mobile/OAuth_QQ</title>
    <desc>Created with Sketch.</desc>
    <defs></defs>
    <g id="Symbols" stroke="none" stroke-width="1" fill="none" fill-rule="evenodd">
        <g id="Icons/Mobile/OAuth_QQ">
            <g id="Group-8">
                <path d="M0,20 C0,8.95430446 8.95430446,0 20,0 C31.0456955,0 40,8.95430446 40,20 C40,31.0456955 31.0456955,40 20,40 C8.95430446,40 0,31.0456955 0,20 Z" id="back" fill="#4CAFE9"></path>
                <g id="Icons/OAuth/QQ" transform="translate(9.000000, 8.000000)" fill="#FFFFFF" fill-rule="nonzero">
                    <g id="qq-(1)">
                        <path d="M0.782806992,13.8425544 C-0.0861055547,15.9698597 -0.235916437,17.9773537 0.453208969,18.3368812 C0.932617875,18.6065501 1.71162513,18.0073066 2.4307268,16.9286541 C2.70037233,18.1271412 3.41947399,19.1758174 4.40822119,20.04473 C3.35954496,20.434257 2.67041953,21.0934062 2.67041953,21.8125079 C2.67041953,23.010995 4.52805584,23.9997422 6.80521887,23.9997422 C8.87259509,23.9997422 10.5804439,23.2207349 10.9100185,22.1720353 L11.3894274,22.1720353 C11.7189786,23.2207349 13.4268509,23.9997422 15.4942271,23.9997422 C17.801343,23.9997422 19.6290264,23.0409478 19.6290264,21.8125079 C19.6290264,21.0934062 18.939901,20.4342336 17.8912248,20.04473 C18.879972,19.1758174 19.5990736,18.1271412 19.8687426,16.9286541 C20.5878208,18.0073066 21.3368753,18.6065267 21.846237,18.3368812 C22.5653386,17.9773538 22.4155277,15.9399069 21.5166624,13.8425544 C20.8275135,12.1946346 19.8986954,10.9661712 19.1795937,10.6965257 C19.1795937,10.6066204 19.20957,10.4867623 19.20957,10.3669277 C19.20957,9.73773131 19.0298063,9.13848776 18.7301611,8.65907885 L18.7301611,8.5392442 C18.7301611,8.23962241 18.6702555,7.96995345 18.5503974,7.73026071 C18.3706337,3.41569767 15.6140852,0 11.1497347,0 C6.68536078,0 3.9288357,3.41569767 3.74904858,7.73026071 C3.62921393,7.96995345 3.56928488,8.23962244 3.56928488,8.5392442 L3.56928488,8.65907885 C3.26966309,9.13848776 3.08987597,9.73773134 3.08987597,10.3669511 L3.08987597,10.6965257 C2.4307268,10.9661712 1.47193242,12.1646584 0.782806992,13.8425544 Z" id="Shape"></path>
                    </g>
                </g>
            </g>
        </g>
    </g>
</svg>