<?xml version="1.0" encoding="UTF-8"?>
<svg width="40px" height="40px" viewBox="0 0 40 40" version="1.1" xmlns="http://www.w3.org/2000/svg" xmlns:xlink="http://www.w3.org/1999/xlink">
    <!-- Generator: Sketch 48.2 (47327) - http://www.bohemiancoding.com/sketch -->
    <title>Icons/Mobile/OAuth_Google</title>
    <desc>Created with Sketch.</desc>
    <defs></defs>
    <g id="Symbols" stroke="none" stroke-width="1" fill="none" fill-rule="evenodd">
        <g id="Icons/Mobile/OAuth_Google">
            <g id="Group-8">
                <path d="M0,20 C0,8.95430446 8.95430446,0 20,0 C31.0456955,0 40,8.95430446 40,20 C40,31.0456955 31.0456955,40 20,40 C8.95430446,40 0,31.0456955 0,20 Z" id="back" fill="#FFFFFF"></path>
                <g id="super-g" transform="translate(11.333333, 11.333333)">
                    <path d="M8.66666667,3.35111111 C10.2940741,3.35111111 11.3918519,4.05407407 12.0177778,4.64148148 L14.4637037,2.25333333 C12.9614815,0.857037037 11.0066667,0 8.66666667,0 C5.27703704,0 2.34962963,1.94518519 0.924444444,4.7762963 L3.72666667,6.95259259 C4.42962963,4.86296296 6.37481481,3.35111111 8.66666667,3.35111111 L8.66666667,3.35111111 Z" id="Shape" fill="#EA4335"></path>
                    <path d="M16.9866667,8.85925926 C16.9866667,8.14666667 16.9288889,7.62666667 16.8037037,7.08740741 L8.66666667,7.08740741 L8.66666667,10.3037037 L13.442963,10.3037037 C13.3466667,11.102963 12.8266667,12.3066667 11.6711111,13.1155556 L14.4059259,15.2340741 C16.042963,13.7222222 16.9866667,11.4977778 16.9866667,8.85925926 L16.9866667,8.85925926 Z" id="Shape" fill="#4285F4"></path>
                    <path d="M3.7362963,10.3807407 C3.55333333,9.84148148 3.44740741,9.2637037 3.44740741,8.66666667 C3.44740741,8.06962963 3.55333333,7.49185185 3.72666667,6.95259259 L0.924444444,4.7762963 C0.337037037,5.95111111 0,7.27037037 0,8.66666667 C0,10.062963 0.337037037,11.3822222 0.924444444,12.557037 L3.7362963,10.3807407 L3.7362963,10.3807407 Z" id="Shape" fill="#FBBC05"></path>
                    <path d="M8.66666667,17.3333333 C11.0066667,17.3333333 12.9711111,16.562963 14.4059259,15.2340741 L11.6711111,13.1155556 C10.9392593,13.6259259 9.95703704,13.9822222 8.66666667,13.9822222 C6.37481481,13.9822222 4.42962963,12.4703704 3.7362963,10.3807407 L0.934074074,12.557037 C2.35925926,15.3881481 5.27703704,17.3333333 8.66666667,17.3333333 L8.66666667,17.3333333 Z" id="Shape" fill="#34A853"></path>
                    <polygon id="Shape" points="0 0 17.3333333 0 17.3333333 17.3333333 0 17.3333333"></polygon>
                </g>
            </g>
        </g>
    </g>
</svg>