<?xml version="1.0" encoding="UTF-8"?>
<svg width="24px" height="24px" viewBox="0 0 24 24" version="1.1" xmlns="http://www.w3.org/2000/svg" xmlns:xlink="http://www.w3.org/1999/xlink">
    <!-- Generator: Sketch 48.2 (47327) - http://www.bohemiancoding.com/sketch -->
    <title>Icons/back_black</title>
    <desc>Created with Sketch.</desc>
    <defs></defs>
    <g id="Symbols" stroke="none" stroke-width="1" fill="none" fill-rule="evenodd">
        <g id="Icons/back_black">
            <g id="Group-6">
                <rect id="Rectangle-4" fill="#FFEBEB" opacity="0" x="0" y="0" width="24" height="24"></rect>
                <path d="M12.4178081,7.13778738 C12.3970508,7.12741938 12.3788961,7.10924338 12.3581388,7.10145671 C11.9793014,6.91982471 11.5122508,6.97949405 11.2086561,7.30124338 L4.27284811,14.6340434 C3.89401078,15.033638 3.91216544,15.664166 4.31176011,16.0430034 C4.71135478,16.4218407 5.34188278,16.403686 5.72072011,16.0040914 L11.9455734,9.42376071 L18.2612428,15.9781287 C18.6427041,16.3751207 19.2732108,16.38551 19.6702028,16.00407 C19.8725921,15.8094674 19.9763574,15.5473874 19.9763788,15.28791 C19.9763788,15.038822 19.8829814,14.7897127 19.6961228,14.5977127 L12.6928588,7.33236871 C12.6798881,7.31939805 12.6591308,7.31421405 12.6461601,7.29864071 C12.6357708,7.28825138 12.6280054,7.27788338 12.6176161,7.26491271 C12.5579468,7.20524338 12.4852854,7.17669938 12.4178294,7.13778738 L12.4178081,7.13778738 Z" id="Shape" fill="#000000" fill-rule="nonzero" transform="translate(11.988189, 11.657926) rotate(-90.000000) translate(-11.988189, -11.657926) "></path>
            </g>
        </g>
    </g>
</svg>