<?xml version="1.0" encoding="UTF-8"?>
<svg width="16px" height="16px" viewBox="0 0 16 16" version="1.1" xmlns="http://www.w3.org/2000/svg" xmlns:xlink="http://www.w3.org/1999/xlink">
    <!-- Generator: Sketch 48.2 (47327) - http://www.bohemiancoding.com/sketch -->
    <title>Icons/close_gray</title>
    <desc>Created with Sketch.</desc>
    <defs></defs>
    <g id="Symbols" stroke="none" stroke-width="1" fill="none" fill-rule="evenodd">
        <g id="Icons/close_gray">
            <g>
                <path d="M8.00001049,0 C3.58207047,0 0,3.58207045 0,8.00001049 C0,12.4179505 3.58209144,16 8.00001049,16 C12.4192509,16 16,12.4179505 16,8.00001049 C16,3.58207047 12.4192509,0 8.00001049,0 Z" id="Shape" fill="#DFDFDF" fill-rule="nonzero"></path>
                <path d="M11.6301767,10.8453643 C11.8929169,11.109404 11.8929169,11.5371911 11.6301767,11.8019243 C11.4967971,11.9332813 11.3238402,12 11.1508017,12 C10.9777633,12 10.8061528,11.9332813 10.6727732,11.8019243 L7.91366436,9.04312254 L5.15455547,11.8019243 C5.02119629,11.9332813 4.84815781,12 4.67520094,12 C4.50216247,12 4.33055203,11.9332813 4.19707047,11.8019243 C3.93430984,11.5372115 3.93430984,11.109404 4.19707047,10.8453643 L6.95654658,8.08607297 L4.19717248,5.32680204 C3.93430986,5.06276234 3.93430986,4.6349548 4.19717248,4.370242 C4.46125915,4.10677342 4.88912238,4.10677342 5.15455549,4.370242 L7.91368477,7.12914577 L10.8454649,4.19760143 C11.109572,3.93413286 11.5374352,3.93413286 11.8028683,4.19760143 C12.0657106,4.46229385 12.0657106,4.89012177 11.8028683,5.15416148 L8.87068014,8.08609337 L11.6301767,10.8453643 Z" id="Path" fill="#999999"></path>
            </g>
        </g>
    </g>
</svg>