<?xml version="1.0" encoding="UTF-8"?>
<svg width="24px" height="24px" viewBox="0 0 24 24" version="1.1" xmlns="http://www.w3.org/2000/svg" xmlns:xlink="http://www.w3.org/1999/xlink">
    <!-- Generator: Sketch 48.2 (47327) - http://www.bohemiancoding.com/sketch -->
    <title>Icons/close_black</title>
    <desc>Created with Sketch.</desc>
    <defs></defs>
    <g id="Symbols" stroke="none" stroke-width="1" fill="none" fill-rule="evenodd">
        <g id="Icons/close_black">
            <g id="Group-6">
                <rect id="Rectangle-4" fill="#FFEBEB" opacity="0" x="0" y="0" width="24" height="24"></rect>
                <path d="M18.4493316,4.26117738 L11.9858046,10.7244781 L5.52227763,4.26117738 C5.17404113,3.91294087 4.60939332,3.91294087 4.26117738,4.26117738 C3.91294087,4.60941388 3.91294087,5.17402057 4.26117738,5.52221594 L10.7247044,11.9854961 L4.26117738,18.4488175 C3.91294087,18.797054 3.91294087,19.3616607 4.26117738,19.709856 C4.60941388,20.0580925 5.1740617,20.0580925 5.52227763,19.709856 L11.9858046,13.2465758 L18.4493316,19.709856 C18.7975681,20.0580925 19.3621954,20.0580925 19.710473,19.709856 C20.0587506,19.3616195 20.0587095,18.7970129 19.710473,18.4488175 L13.246946,11.9855167 L19.710473,5.5222365 C20.0587095,5.174 20.0587095,4.60939332 19.710473,4.26119794 C19.3622159,3.91300257 18.7975887,3.91300257 18.4493316,4.26117738 Z" id="Shape" fill="#1C1C1C" fill-rule="nonzero"></path>
            </g>
        </g>
    </g>
</svg>